<svg version="1.1" id="Layer_1" xmlns="http://www.w3.org/2000/svg" xmlns:xlink="http://www.w3.org/1999/xlink" x="0px" y="0px"
	 width="100%" viewBox="0 0 500 390" enable-background="new 0 0 500 390" xml:space="preserve">
<path fill="#1649FF" opacity="1.000000" stroke="none" 
	d="
M334.000000,391.000000 
	C222.697769,391.000000 111.895554,391.000000 1.046663,391.000000 
	C1.046663,261.067596 1.046663,131.135208 1.046663,1.101395 
	C167.552231,1.101395 334.104553,1.101395 500.828430,1.101395 
	C500.828430,130.999817 500.828430,260.999878 500.828430,391.000000 
	C445.468475,391.000000 389.984253,391.000000 334.000000,391.000000 
M244.797516,191.284958 
	C257.295807,177.268448 258.907074,160.523117 256.517303,142.974289 
	C254.550186,128.529175 247.741638,116.938339 234.861069,109.407936 
	C224.016403,103.067787 212.185806,99.481903 199.761612,99.132195 
	C177.117859,98.494850 154.451553,98.655975 131.794479,98.509987 
	C130.879608,98.504082 129.963043,98.763626 128.266907,99.015274 
	C133.556854,111.694939 132.218430,124.579147 132.232056,137.331009 
	C132.283539,185.484955 132.252792,233.638977 132.252792,281.792969 
	C132.252792,283.737762 132.252777,285.682556 132.252777,287.681152 
	C144.430679,287.681152 155.993866,287.681152 168.046417,287.681152 
	C168.046417,262.296356 168.046417,237.231171 168.046417,211.840897 
	C176.841766,211.840897 185.163651,212.179382 193.448975,211.772705 
	C212.589584,210.833206 230.092911,205.424698 244.797516,191.284958 
M380.692413,247.035065 
	C380.956024,245.559509 381.222260,244.084427 381.482849,242.608337 
	C385.549988,219.571716 376.674408,199.590805 356.487335,187.909927 
	C344.697418,181.087936 332.202728,175.477112 320.469055,168.567566 
	C314.140839,164.841110 307.742767,160.351837 303.147095,154.753143 
	C294.308441,143.985443 298.910065,128.869217 311.597412,123.201546 
	C320.259125,119.332191 329.324371,119.211609 338.016846,121.695961 
	C346.184998,124.030464 353.846924,128.136230 362.331818,131.715897 
	C367.335663,125.473732 373.130646,118.244637 379.080078,110.822899 
	C377.530151,109.741402 376.402863,108.758797 375.114197,108.084534 
	C349.443268,94.652634 322.728058,90.898506 295.060394,100.726250 
	C274.903412,107.886147 262.846283,122.149368 261.299408,143.988144 
	C259.783356,165.391678 267.786530,182.036652 287.162872,192.336029 
	C299.199341,198.733932 311.623718,204.439468 323.402710,211.268616 
	C329.443726,214.771042 335.427338,219.282822 339.721375,224.698654 
	C348.674774,235.991196 344.994232,252.749771 332.748138,260.400208 
	C320.280945,268.188751 306.790192,267.736450 293.799408,263.024994 
	C284.319244,259.586792 275.685852,253.813751 266.353607,248.912766 
	C262.836914,257.178467 258.899902,266.431976 254.644073,276.434906 
	C284.903534,290.707764 315.512085,297.279755 347.461029,284.699066 
	C364.161041,278.122986 376.020477,266.001953 380.692413,247.035065 
M413.282318,218.898514 
	C411.994720,225.711075 409.861877,232.490585 409.594086,239.343002 
	C409.022003,253.982437 409.503052,268.660309 409.384399,283.321075 
	C409.300049,293.740997 403.739899,299.177551 393.277374,299.485626 
	C391.536469,299.536865 389.798126,299.675140 388.086243,299.771667 
	C388.086243,309.460297 388.086243,318.548859 388.086243,328.302765 
	C393.496246,328.008118 398.723602,328.358337 403.671051,327.343567 
	C424.642975,323.042206 438.057068,306.175812 438.357635,283.960052 
	C438.555939,269.300964 438.531464,254.635468 438.345398,239.976181 
	C438.260925,233.319412 440.439514,228.100220 445.643799,223.850830 
	C451.316895,219.218750 456.649536,214.171295 462.166626,209.346130 
	C469.066620,203.311569 468.984924,191.513550 460.920837,185.933456 
	C456.131622,182.619461 451.695282,178.791458 446.874420,175.528214 
	C440.778839,171.402054 438.254822,165.842392 438.348267,158.566269 
	C438.536560,143.906982 438.519287,129.242142 438.337067,114.582687 
	C438.277405,109.785645 437.956329,104.879524 436.877655,100.226646 
	C431.836060,78.480415 408.329041,63.430550 388.071930,68.667931 
	C388.071930,77.787605 388.071930,86.894547 388.071930,96.148689 
	C389.128876,96.290405 389.932556,96.463196 390.742065,96.497070 
	C405.361969,97.108856 409.413605,101.362213 409.416779,116.139168 
	C409.419891,130.467651 409.445038,144.796204 409.409851,159.124619 
	C409.383789,169.743454 411.704895,179.655746 418.488129,188.067993 
	C421.694550,192.044434 425.372009,195.641083 428.287476,198.813004 
	C423.537079,205.127640 418.602356,211.687286 413.282318,218.898514 
M93.002777,128.500183 
	C93.006004,122.836777 92.925484,117.171799 93.032005,111.510338 
	C93.193275,102.939255 98.715721,97.206818 107.293404,96.587837 
	C109.723564,96.412476 112.162399,96.357246 114.567810,96.248260 
	C114.567810,86.606804 114.567810,77.507294 114.567810,68.455986 
	C87.322861,64.290962 64.138840,83.994736 64.032829,111.188042 
	C63.970486,127.179100 63.859402,143.172867 64.089821,159.160828 
	C64.190788,166.166168 61.505863,171.303894 55.910717,175.266708 
	C51.565090,178.344574 47.361225,181.622986 43.102905,184.823624 
	C32.644291,192.684540 32.311646,202.194702 42.195507,210.986481 
	C47.173378,215.414322 52.062569,219.951126 57.192966,224.195587 
	C62.057903,228.220413 64.154167,233.142288 64.081261,239.459274 
	C63.900570,255.114990 63.758446,270.781281 64.127106,286.430908 
	C64.747131,312.751312 89.020432,332.391113 114.622383,327.413910 
	C114.622383,318.363403 114.622383,309.268188 114.622383,299.806702 
	C113.033661,299.693146 111.578293,299.529724 110.119820,299.494202 
	C98.136467,299.202454 93.018578,293.937469 93.006294,281.804382 
	C92.991463,267.145691 93.026474,252.486954 92.995201,237.828323 
	C92.965439,223.875076 87.703316,212.289902 77.150604,203.124191 
	C75.695374,201.860229 74.309998,200.515854 72.653732,198.988785 
	C85.175858,189.651718 92.593727,177.900330 92.944199,162.480957 
	C93.193962,151.492569 92.999176,140.494080 93.002777,128.500183 
z"/>
<path fill="#FCFDFF" opacity="1.000000" stroke="none" 
	d="
M244.550385,191.538574 
	C230.092911,205.424698 212.589584,210.833206 193.448975,211.772705 
	C185.163651,212.179382 176.841766,211.840897 168.046417,211.840897 
	C168.046417,237.231171 168.046417,262.296356 168.046417,287.681152 
	C155.993866,287.681152 144.430679,287.681152 132.252777,287.681152 
	C132.252777,285.682556 132.252792,283.737762 132.252792,281.792969 
	C132.252792,233.638977 132.283539,185.484955 132.232056,137.331009 
	C132.218430,124.579147 133.556854,111.694939 128.266907,99.015274 
	C129.963043,98.763626 130.879608,98.504082 131.794479,98.509987 
	C154.451553,98.655975 177.117859,98.494850 199.761612,99.132195 
	C212.185806,99.481903 224.016403,103.067787 234.861069,109.407936 
	C247.741638,116.938339 254.550186,128.529175 256.517303,142.974289 
	C258.907074,160.523117 257.295807,177.268448 244.550385,191.538574 
M211.134949,131.361877 
	C208.507385,129.644684 206.090729,127.329140 203.215149,126.315643 
	C191.790665,122.289108 179.981033,124.523911 168.430206,124.033188 
	C168.430206,145.328873 168.430206,165.889420 168.430206,186.011810 
	C177.894836,186.011810 187.062759,186.621292 196.088821,185.754135 
	C200.587311,185.321945 205.349564,182.897995 209.089340,180.147125 
	C223.318893,169.680252 222.252502,141.773239 211.134949,131.361877 
z"/>
<path fill="#FDFEFF" opacity="1.000000" stroke="none" 
	d="
M380.552277,247.428284 
	C376.020477,266.001953 364.161041,278.122986 347.461029,284.699066 
	C315.512085,297.279755 284.903534,290.707764 254.644073,276.434906 
	C258.899902,266.431976 262.836914,257.178467 266.353607,248.912766 
	C275.685852,253.813751 284.319244,259.586792 293.799408,263.024994 
	C306.790192,267.736450 320.280945,268.188751 332.748138,260.400208 
	C344.994232,252.749771 348.674774,235.991196 339.721375,224.698654 
	C335.427338,219.282822 329.443726,214.771042 323.402710,211.268616 
	C311.623718,204.439468 299.199341,198.733932 287.162872,192.336029 
	C267.786530,182.036652 259.783356,165.391678 261.299408,143.988144 
	C262.846283,122.149368 274.903412,107.886147 295.060394,100.726250 
	C322.728058,90.898506 349.443268,94.652634 375.114197,108.084534 
	C376.402863,108.758797 377.530151,109.741402 379.080078,110.822899 
	C373.130646,118.244637 367.335663,125.473732 362.331818,131.715897 
	C353.846924,128.136230 346.184998,124.030464 338.016846,121.695961 
	C329.324371,119.211609 320.259125,119.332191 311.597412,123.201546 
	C298.910065,128.869217 294.308441,143.985443 303.147095,154.753143 
	C307.742767,160.351837 314.140839,164.841110 320.469055,168.567566 
	C332.202728,175.477112 344.697418,181.087936 356.487335,187.909927 
	C376.674408,199.590805 385.549988,219.571716 381.482849,242.608337 
	C381.222260,244.084427 380.956024,245.559509 380.552277,247.428284 
z"/>
<path fill="#EDEDEF" opacity="1.000000" stroke="none" 
	d="
M413.474976,218.572723 
	C418.602356,211.687286 423.537079,205.127640 428.287476,198.813004 
	C425.372009,195.641083 421.694550,192.044434 418.488129,188.067993 
	C411.704895,179.655746 409.383789,169.743454 409.409851,159.124619 
	C409.445038,144.796204 409.419891,130.467651 409.416779,116.139168 
	C409.413605,101.362213 405.361969,97.108856 390.742065,96.497070 
	C389.932556,96.463196 389.128876,96.290405 388.071930,96.148689 
	C388.071930,86.894547 388.071930,77.787605 388.071930,68.667931 
	C408.329041,63.430550 431.836060,78.480415 436.877655,100.226646 
	C437.956329,104.879524 438.277405,109.785645 438.337067,114.582687 
	C438.519287,129.242142 438.536560,143.906982 438.348267,158.566269 
	C438.254822,165.842392 440.778839,171.402054 446.874420,175.528214 
	C451.695282,178.791458 456.131622,182.619461 460.920837,185.933456 
	C468.984924,191.513550 469.066620,203.311569 462.166626,209.346130 
	C456.649536,214.171295 451.316895,219.218750 445.643799,223.850830 
	C440.439514,228.100220 438.260925,233.319412 438.345398,239.976181 
	C438.531464,254.635468 438.555939,269.300964 438.357635,283.960052 
	C438.057068,306.175812 424.642975,323.042206 403.671051,327.343567 
	C398.723602,328.358337 393.496246,328.008118 388.086243,328.302765 
	C388.086243,318.548859 388.086243,309.460297 388.086243,299.771667 
	C389.798126,299.675140 391.536469,299.536865 393.277374,299.485626 
	C403.739899,299.177551 409.300049,293.740997 409.384399,283.321075 
	C409.503052,268.660309 409.022003,253.982437 409.594086,239.343002 
	C409.861877,232.490585 411.994720,225.711075 413.474976,218.572723 
z"/>
<path fill="#EDEEEF" opacity="1.000000" stroke="none" 
	d="
M93.002777,129.000137 
	C92.999176,140.494080 93.193962,151.492569 92.944199,162.480957 
	C92.593727,177.900330 85.175858,189.651718 72.653732,198.988785 
	C74.309998,200.515854 75.695374,201.860229 77.150604,203.124191 
	C87.703316,212.289902 92.965439,223.875076 92.995201,237.828323 
	C93.026474,252.486954 92.991463,267.145691 93.006294,281.804382 
	C93.018578,293.937469 98.136467,299.202454 110.119820,299.494202 
	C111.578293,299.529724 113.033661,299.693146 114.622383,299.806702 
	C114.622383,309.268188 114.622383,318.363403 114.622383,327.413910 
	C89.020432,332.391113 64.747131,312.751312 64.127106,286.430908 
	C63.758446,270.781281 63.900570,255.114990 64.081261,239.459274 
	C64.154167,233.142288 62.057903,228.220413 57.192966,224.195587 
	C52.062569,219.951126 47.173378,215.414322 42.195507,210.986481 
	C32.311646,202.194702 32.644291,192.684540 43.102905,184.823624 
	C47.361225,181.622986 51.565090,178.344574 55.910717,175.266708 
	C61.505863,171.303894 64.190788,166.166168 64.089821,159.160828 
	C63.859402,143.172867 63.970486,127.179100 64.032829,111.188042 
	C64.138840,83.994736 87.322861,64.290962 114.567810,68.455986 
	C114.567810,77.507294 114.567810,86.606804 114.567810,96.248260 
	C112.162399,96.357246 109.723564,96.412476 107.293404,96.587837 
	C98.715721,97.206818 93.193275,102.939255 93.032005,111.510338 
	C92.925484,117.171799 93.006004,122.836777 93.002777,129.000137 
z"/>
<path fill="#184BFF" opacity="1.000000" stroke="none" 
	d="
M211.393066,131.615356 
	C222.252502,141.773239 223.318893,169.680252 209.089340,180.147125 
	C205.349564,182.897995 200.587311,185.321945 196.088821,185.754135 
	C187.062759,186.621292 177.894836,186.011810 168.430206,186.011810 
	C168.430206,165.889420 168.430206,145.328873 168.430206,124.033188 
	C179.981033,124.523911 191.790665,122.289108 203.215149,126.315643 
	C206.090729,127.329140 208.507385,129.644684 211.393066,131.615356 
z"/>
</svg>